<svg xmlns="http://www.w3.org/2000/svg" xmlns:xlink="http://www.w3.org/1999/xlink" width="315" height="57" viewBox="0 0 315 57">
  <defs>
    <filter id="Path_79" x="0" y="0" width="315" height="57" filterUnits="userSpaceOnUse">
      <feOffset dy="3" input="SourceAlpha"/>
      <feGaussianBlur stdDeviation="2.5" result="blur"/>
      <feFlood flood-opacity="0.161"/>
      <feComposite operator="in" in2="blur"/>
      <feComposite in="SourceGraphic"/>
    </filter>
  </defs>
  <g transform="matrix(1, 0, 0, 1, 0, 0)" filter="url(#Path_79)">
    <path id="Path_79-2" data-name="Path 79" d="M185.752,332.258v42h-7.831v-42Zm30.292,0v42h-7.831v-42Zm2.343,0h13.089l.285,7.1H218.386Zm0,17.747H228.9v6.507H218.386Zm0,17.156h13.375l-.285,7.1H218.386Zm27.121-27.8h-9.546l-.314-7.1h9.86Zm0,34.9h-9.86l.314-7.1h9.546Zm0-17.746h-7.059V350h7.059Zm2.2,10.649q3.945-.119,3.944-2.663V360.06q0-2.691-3.944-3.4v-6.8q3.945-.711,3.944-3.4v-4.437q0-2.662-3.371-2.663h-.573v-7.1h1.429q10.344,0,10.346,9.17v5.028q0,5.531-4.86,6.8,4.859,1.273,4.86,6.8v5.028q0,9.172-10.346,9.17h-1.429Zm23.491-34.9v42h-7.831v-42Zm2.343,0H286.63l.285,7.1H273.541Zm0,17.747h10.517v6.507H273.541Zm0,17.156h13.375l-.285,7.1H273.541Zm25.093-34.9v42H290.8v-42Zm2.228,0h6q10.344,0,10.344,9.17v7.691q0,8.547-10.344,9.168h-6v-7.1h4.573q3.942,0,3.944-2.663v-6.507q0-2.662-3.944-2.663h-4.573Zm28.064,0v42h-7.831v-42ZM330.81,350H335.7q3.687-.295,3.688-3.549v-4.437q0-2.662-3.373-2.663h-5.2v-7.1h6.059q10.344,0,10.344,9.17v5.028q0,5.531-4.343,6.773,4.914,1.3,4.915,6.832v5.028q0,9.172-10.346,9.17h-6.63v-7.1h5.2q3.945,0,3.944-2.663V360.06q0-3.253-4.23-3.549H330.81ZM359.5,332.258v42h-7.829v-42Zm15.631,42h-1.4q-10.344,0-10.344-9.17V341.428q0-9.169,10.344-9.17h1.4v7.1q-3.914.122-3.915,2.663V364.5q0,2.543,3.915,2.663Zm2.429-42h9.373l-.285,7.1h-9.088Zm0,34.9h9.088l.285,7.1h-9.373Zm13.26-27.8.316-7.1h25.518l.314,7.1Zm17.547,2.22v32.682h-7.831V341.576Zm-266.046-7.742v4.715a1.548,1.548,0,0,0,1.523,1.572h4.567a1.55,1.55,0,0,1,1.523,1.574v6.011a1.55,1.55,0,0,1-1.523,1.574h-17.2a1.548,1.548,0,0,0-1.523,1.572v4.717a1.55,1.55,0,0,0,1.523,1.574h24.813a1.55,1.55,0,0,0,1.523-1.574V333.854a1.55,1.55,0,0,0-1.521-1.574l-12.181-.02A1.549,1.549,0,0,0,142.323,333.834Zm1.523,40.424h12.181a1.549,1.549,0,0,0,1.523-1.574v-4.717a1.548,1.548,0,0,0-1.523-1.572H143.846a1.548,1.548,0,0,0-1.523,1.572v4.717A1.549,1.549,0,0,0,143.846,374.258Zm-8.065-42H118.495a1.549,1.549,0,0,0-1.525,1.574v38.852a1.549,1.549,0,0,0,1.525,1.574h4.567a1.549,1.549,0,0,0,1.523-1.574V341.7a1.55,1.55,0,0,1,1.525-1.574h9.672a1.549,1.549,0,0,0,1.525-1.572v-4.717A1.549,1.549,0,0,0,135.781,332.258Zm52.2,0h6q10.344,0,10.346,9.17v7.691q0,8.547-10.346,9.168h-6v-7.1h4.573q3.945,0,3.944-2.663v-6.507q0-2.662-3.944-2.663H187.98Z" transform="translate(-109.47 -327.76)" fill="#fff" fill-rule="evenodd"/>
  </g>
</svg>
