<svg xmlns="http://www.w3.org/2000/svg" width="26" height="26.91" viewBox="0 0 26 26.91">
  <path id="Path_195" data-name="Path 195" d="M133.214,333.268v3.021a.992.992,0,0,0,.976,1.007h2.926a.993.993,0,0,1,.976,1.009v3.852a.993.993,0,0,1-.976,1.009H126.1a.992.992,0,0,0-.976,1.007v3.022a.993.993,0,0,0,.976,1.009h15.9a.993.993,0,0,0,.976-1.009V333.281a.993.993,0,0,0-.975-1.009l-7.8-.013A.993.993,0,0,0,133.214,333.268Zm.976,25.9h7.8a.992.992,0,0,0,.976-1.009v-3.022a.992.992,0,0,0-.976-1.007h-7.8a.992.992,0,0,0-.976,1.007v3.022A.992.992,0,0,0,134.19,359.168Zm-5.167-26.91H117.947a.993.993,0,0,0-.977,1.009v24.892a.992.992,0,0,0,.977,1.009h2.926a.992.992,0,0,0,.976-1.009V338.3a.993.993,0,0,1,.977-1.009h6.2a.992.992,0,0,0,.977-1.007v-3.022A.993.993,0,0,0,129.023,332.258Z" transform="translate(-116.97 -332.258)" fill="#545456" fill-rule="evenodd"/>
</svg>
